<?xml version="1.0" encoding="UTF-8" standalone="no"?>
<svg
   xmlns:dc="http://purl.org/dc/elements/1.1/"
   xmlns:cc="http://creativecommons.org/ns#"
   xmlns:rdf="http://www.w3.org/1999/02/22-rdf-syntax-ns#"
   xmlns:svg="http://www.w3.org/2000/svg"
   xmlns="http://www.w3.org/2000/svg"
   xmlns:sodipodi="http://sodipodi.sourceforge.net/DTD/sodipodi-0.dtd"
   xmlns:inkscape="http://www.inkscape.org/namespaces/inkscape"
   inkscape:version="1.0beta1 (32d4812, 2019-09-19)"
   sodipodi:docname="graceLondon_LOGO_white.svg"
   width="709.68359pt"
   height="106.90235pt"
   viewBox="0 0 709.68359 106.90235"
   version="1.2"
   id="svg874">
  <sodipodi:namedview
     inkscape:current-layer="surface13202"
     inkscape:window-maximized="0"
     inkscape:window-y="0"
     inkscape:window-x="0"
     inkscape:cy="237.14286"
     inkscape:cx="467.14285"
     inkscape:zoom="0.35"
     fit-margin-bottom="0"
     fit-margin-right="0"
     fit-margin-left="0"
     fit-margin-top="0"
     showgrid="false"
     id="namedview848"
     inkscape:window-height="778"
     inkscape:window-width="1280"
     inkscape:pageshadow="2"
     inkscape:pageopacity="0"
     guidetolerance="10"
     gridtolerance="10"
     objecttolerance="10"
     borderopacity="1"
     inkscape:document-rotation="0"
     bordercolor="#666666"
     pagecolor="#ffffff" />
  <metadata
     id="metadata880">
    <rdf:RDF>
      <cc:Work
         rdf:about="">
        <dc:format>image/svg+xml</dc:format>
        <dc:type
           rdf:resource="http://purl.org/dc/dcmitype/StillImage" />
        <dc:title></dc:title>
      </cc:Work>
    </rdf:RDF>
  </metadata>
  <defs
     id="defs878" />
  <g
     id="surface13202"
     transform="rotate(-90,138.44727,206.8457)"
     style="fill:#ffffff;fill-opacity:1">
    <g
       style="fill:#f2f2f2;fill-opacity:1"
       id="g861">
      <path
         inkscape:connector-curvature="0"
         id="path851"
         d="m 304.33203,80.78125 c -5.48828,0 -9.51172,1.125 -12.06641,3.382812 -2.55078,2.253907 -3.82812,5.128907 -3.82812,8.617188 0,3.234375 1.26562,6.011719 3.79687,8.33203 2.53516,2.32031 6.92969,3.48047 13.1836,3.48047 6.29687,0 10.64062,-1.23828 13.02344,-3.70312 2.38281,-2.468755 3.57421,-5.257818 3.57421,-8.363286 0,-3.917969 -1.46875,-6.851563 -4.40234,-8.808594 -2.9375,-1.957031 -7.36328,-2.9375 -13.28125,-2.9375 M 318.25,109.50781 c 4.08594,3.61719 6.12891,7.27735 6.12891,10.98047 0,2.04297 -0.55469,3.625 -1.66016,4.75391 -1.10938,1.1289 -2.32031,1.6914 -3.64063,1.6914 -2.80859,0 -4.21093,-1.27343 -4.21093,-3.82812 0,-1.40625 0.87109,-2.61719 2.61718,-3.64063 1.61719,-0.9375 2.42579,-1.91406 2.42579,-2.9375 0,-1.61718 -1.10938,-3.40234 -3.32032,-5.35937 -3.48828,2.21094 -7.1914,3.31641 -11.10937,3.31641 -5.10547,0 -9.61719,-1.82813 -13.53125,-5.48829 -3.95703,-3.66015 -6.08594,-9.828121 -6.38281,-18.511715 -0.30079,-9.023437 -2.12891,-13.535156 -5.49219,-13.535156 -1.57422,0 -2.67969,1.023437 -3.31641,3.066406 -0.68359,2 -1.19531,6.210937 -1.53515,12.636719 -0.33985,7.023437 -0.98829,12.429686 -1.94532,16.218746 -0.95703,3.78516 -2.88281,6.8086 -5.77734,9.0625 -2.89453,2.25391 -6.33984,3.38282 -10.33984,3.38282 -5.6211,0 -10.15235,-2.29688 -13.59766,-6.89453 -3.44922,-4.59375 -5.17188,-11.21485 -5.17188,-19.851568 0,-7.914062 1.53125,-14.257812 4.59375,-19.023437 3.06641,-4.765625 6.9375,-7.148437 11.6211,-7.148437 2.59375,0 4.72265,0.679687 6.38281,2.042968 1.66016,1.359375 2.48828,3.292969 2.48828,5.808594 0,0.679688 -0.10547,1.296875 -0.3164,1.847656 -2.89454,-2.636718 -5.96094,-3.957031 -9.19532,-3.957031 -3.74218,0 -6.83984,1.757813 -9.28515,5.269531 -2.44922,3.507813 -3.67188,8.753906 -3.67188,15.734375 0,6.210939 1.2461,11.054689 3.73438,14.523439 2.48828,3.46875 5.67187,5.20312 9.54297,5.20312 4.25781,0 7.25781,-1.55468 9,-4.66015 1.70312,-3.10938 2.72656,-8.64063 3.0664,-16.597659 0.38281,-9.152343 1.50781,-15.089843 3.38281,-17.8125 1.82813,-2.722656 4.19141,-4.085937 7.08594,-4.085937 5.57422,0 9.08594,3.894531 10.53125,11.683594 2.38672,-4.042969 5.10938,-7.085938 8.17188,-9.128907 3.0664,-2.042969 6.48828,-3.0625 10.27734,-3.0625 5.32031,0 9.83984,2.09375 13.56641,6.285157 3.72265,4.191406 5.58593,9.164062 5.58593,14.90625 0,7.109374 -2.23437,12.808592 -6.70312,17.109372"
         style="fill:#f2f2f2;fill-opacity:1;fill-rule:nonzero;stroke:none" />
      <path
         inkscape:connector-curvature="0"
         id="path853"
         d="m 311.60937,165.65625 c 3.78907,1.44531 6.96094,3.79687 9.51172,7.05469 2.55469,3.2539 3.83203,6.4375 3.83203,9.54297 0,2.80859 -0.87109,5.01953 -2.61718,6.64062 -1.7461,1.61719 -3.53516,2.42578 -5.36328,2.42578 -1.23438,0 -2.29688,-0.41406 -3.19141,-1.24609 -0.89453,-0.82813 -1.33984,-1.84375 -1.33984,-3.03125 0,-2.12891 1.57421,-3.7461 4.72265,-4.85156 2.12891,-0.76563 3.19141,-1.91797 3.19141,-3.44922 0,-1.82813 -1.24219,-4.01953 -3.73438,-6.57422 -2.48828,-2.55469 -5.07422,-4.19141 -7.75781,-4.91406 -2.67969,-0.72266 -6.35937,-1.08594 -11.04297,-1.08594 h -9.3164 c -5.57813,0 -9.08985,0.0742 -10.53516,0.22265 -1.44922,0.14844 -2.55469,0.75391 -3.32031,1.82032 -0.76563,1.0625 -1.14844,2.95703 -1.14844,5.67968 v 1.78907 h -2.9375 V 147.91016 H 273.5 V 149.25 c 0,2.55469 0.35156,4.375 1.05469,5.45703 0.69922,1.08594 1.6914,1.73438 2.96484,1.94922 1.28125,0.21094 4.9375,0.32031 10.98438,0.32031 H 303.25 c 5.61328,0 9.13672,-0.0742 10.5625,-0.22656 1.42578,-0.14844 2.53125,-0.75391 3.32031,-1.81641 0.78906,-1.0664 1.17969,-2.96093 1.17969,-5.68359 v -1.33984 h 2.875 c 0.46484,4 1.72266,9.23437 3.76562,15.70312 -3.36328,1.23438 -7.80859,1.91406 -13.34375,2.04297"
         style="fill:#f2f2f2;fill-opacity:1;fill-rule:nonzero;stroke:none" />
      <path
         inkscape:connector-curvature="0"
         id="path855"
         d="m 302.48047,243.84766 -2.8086,-6.95704 c -4.46875,-10.98046 -10.08203,-16.47265 -16.85156,-16.47265 -2.67969,0 -4.83984,0.70312 -6.48047,2.10547 -1.63672,1.40625 -2.45703,3.23437 -2.45703,5.49218 0,2 0.66016,4.32032 1.98047,6.95704 1.31641,2.64062 3.29688,5.59765 5.93359,8.875 z m -22.33985,18.51171 v 2.36329 c -7.27734,-0.38282 -10.91796,-3.95704 -10.91796,-10.72657 0,-2.89453 0.76562,-5.17968 2.29687,-6.85937 1.53516,-1.6836 3.80859,-2.77735 6.83203,-3.28906 -3.02344,-4.25782 -5.29687,-8.14063 -6.83203,-11.65235 -1.53125,-3.50781 -2.29687,-6.64844 -2.29687,-9.41406 0,-3.53516 1.02343,-6.57422 3.0625,-9.12891 2.04296,-2.55468 4.74609,-3.82812 8.10937,-3.82812 4.38281,0 8.21484,2.13672 11.49219,6.41406 3.27344,4.27734 6.46875,10.18359 9.57422,17.71484 l 4.02343,9.89454 h 2.55079 c 3.61718,0 6.23437,-0.23438 7.85156,-0.70313 1.61719,-0.46875 3.0664,-1.68359 4.34375,-3.63672 1.27344,-1.96094 1.91406,-4.53515 1.91406,-7.72656 0,-6.38281 -2.12891,-9.9375 -6.38281,-10.66016 -4.34375,-0.67968 -6.51172,-2.46875 -6.51172,-5.36328 0,-2.59375 1.23047,-3.89062 3.70312,-3.89062 2.42188,0 5.03125,1.72265 7.82032,5.16797 2.78515,3.44921 4.17968,8.80859 4.17968,16.08593 0,5.40625 -0.85156,9.59766 -2.55468,12.57813 -1.70313,2.97656 -3.63672,4.94531 -5.8086,5.90625 -2.17187,0.95703 -5.49218,1.43359 -9.95703,1.43359 h -21.1289 c -4.94141,0 -8.10938,0.25391 -9.51172,0.76563 -1.40625,0.51172 -2.10938,1.61718 -2.10938,3.32031 0,2.80859 2.08594,4.55469 6.25781,5.23437"
         style="fill:#f2f2f2;fill-opacity:1;fill-rule:nonzero;stroke:none" />
      <path
         inkscape:connector-curvature="0"
         id="path857"
         d="m 283.33203,324.01953 v 2.80859 c -9.91797,-2.89453 -14.875,-10.1289 -14.875,-21.70312 0,-7.44922 2.53125,-13.71484 7.59766,-18.80078 5.0625,-5.08594 11.76562,-7.62891 20.10547,-7.62891 8.55468,0 15.49218,2.7461 20.8125,8.23438 5.32031,5.49218 7.98046,11.98047 7.98046,19.47265 0,4.51172 -0.98828,8.66016 -2.96875,12.44922 -1.98046,3.78516 -4.39453,5.67969 -7.24609,5.67969 -1.0625,0 -2.06641,-0.35156 -3,-1.05469 -0.9375,-0.69922 -1.40234,-1.71094 -1.40234,-3.03125 0,-2.80859 1.63672,-4.53125 4.91406,-5.17187 2.46875,-0.50782 4.19141,-1.29688 5.16797,-2.35938 0.98047,-1.10937 1.47265,-3.25781 1.47265,-6.44922 0,-5.70312 -1.98046,-9.99218 -5.9375,-12.86328 -3.96093,-2.87109 -9.91796,-4.30859 -17.875,-4.30859 -8.21484,0 -14.64062,1.54297 -19.28125,4.6289 -4.63671,3.08594 -6.95703,7.75391 -6.95703,14.01172 0,8.42578 3.82813,13.78907 11.49219,16.08594"
         style="fill:#f2f2f2;fill-opacity:1;fill-rule:nonzero;stroke:none" />
      <path
         inkscape:connector-curvature="0"
         id="path859"
         d="m 307.71875,380.74609 c 0.97656,0.12891 1.84766,0.19141 2.61328,0.19141 3.74609,0 6.65234,-1.09766 8.71484,-3.28906 2.0625,-2.19141 3.09766,-4.88282 3.09766,-8.07422 0,-7.7461 -4.8125,-12.36328 -14.42578,-13.85156 z m -2.55469,11.17188 v -36.44922 c -2.51172,-0.17188 -4.38281,-0.25781 -5.61719,-0.25781 -9.1914,0 -16.09765,1.4375 -20.71484,4.30859 -4.61719,2.875 -6.92969,7.16016 -6.92969,12.86328 0,7.7461 3.46875,13.23438 10.40625,16.46875 v 3.06641 c -4.33984,-1.36328 -7.73437,-4.06641 -10.18359,-8.10938 -2.44531,-4.04297 -3.66797,-8.44531 -3.66797,-13.21093 0,-4.42969 1.11719,-8.60938 3.35156,-12.54688 2.23438,-3.9375 5.39453,-7.16016 9.48047,-9.67187 4.08594,-2.50782 9.04297,-3.76563 14.8711,-3.76563 8.25781,0 15.12109,2.42578 20.58984,7.27734 5.46875,4.85157 8.20312,10.91797 8.20312,18.19532 0,6.85156 -2.08593,12.14843 -6.25781,15.89453 -4.17187,3.74609 -8.67969,5.72265 -13.53125,5.9375"
         style="fill:#f2f2f2;fill-opacity:1;fill-rule:nonzero;stroke:none" />
      <path
         inkscape:connector-curvature="0"
         id="path861"
         d="m 345.29297,418.78516 v 4.60546 h -70.75391 v 42.38672 h -3.97656 v -46.99218 z m 0,0"
         style="fill:#f2f2f2;fill-opacity:1;fill-rule:nonzero;stroke:none" />
      <path
         inkscape:connector-curvature="0"
         id="path863"
         d="m 297.46094,478.54687 c -3.20703,0 -6.29688,0.45313 -9.26172,1.35938 -2.96485,0.91016 -5.59766,2.23437 -7.90235,3.98047 -2.30078,1.74219 -4.13281,3.90625 -5.49609,6.48828 -1.35937,2.58203 -2.03906,5.54687 -2.03906,8.89453 0,3.35156 0.67969,6.31641 2.03906,8.89844 1.36328,2.57812 3.19531,4.74219 5.49609,6.48828 2.30469,1.74219 4.9375,3.06641 7.90235,3.97656 2.96484,0.90625 6.05469,1.35938 9.26172,1.35938 3.20703,0 6.29687,-0.45313 9.26172,-1.35938 2.96484,-0.91015 5.60156,-2.23437 7.90234,-3.97656 2.30469,-1.74609 4.13281,-3.91016 5.49609,-6.48828 1.35938,-2.58203 2.03907,-5.54688 2.03907,-8.89844 0,-3.34766 -0.67969,-6.3125 -2.03907,-8.89453 -1.36328,-2.58203 -3.1914,-4.74609 -5.49609,-6.48828 -2.30078,-1.7461 -4.9375,-3.07031 -7.90234,-3.98047 -2.96485,-0.90625 -6.05469,-1.35938 -9.26172,-1.35938 m 0,-3.97656 c 3.83593,0 7.44922,0.53906 10.83203,1.6211 3.38281,1.08203 6.36719,2.67187 8.94922,4.76171 2.58203,2.09766 4.62109,4.67579 6.125,7.7461 1.49609,3.07031 2.25,6.59375 2.25,10.57031 0,3.97656 -0.75391,7.5 -2.25,10.57031 -1.50391,3.07032 -3.54297,5.65235 -6.125,7.7461 -2.58203,2.09375 -5.56641,3.67968 -8.94922,4.76172 -3.38281,1.08203 -6.9961,1.62109 -10.83203,1.62109 -3.83594,0 -7.46485,-0.53906 -10.88282,-1.62109 -3.41796,-1.08204 -6.40625,-2.66797 -8.94921,-4.76172 -2.54688,-2.09375 -4.57032,-4.67578 -6.07032,-7.7461 -1.5,-3.07031 -2.25,-6.59375 -2.25,-10.57031 0,-3.97656 0.75,-7.5 2.25,-10.57031 1.5,-3.07031 3.52344,-5.64844 6.07032,-7.7461 2.54296,-2.08984 5.53125,-3.67968 8.94921,-4.76171 3.41797,-1.08204 7.04688,-1.6211 10.88282,-1.6211"
         style="fill:#f2f2f2;fill-opacity:1;fill-rule:nonzero;stroke:none" />
      <path
         inkscape:connector-curvature="0"
         id="path865"
         d="m 324.35937,541.65625 v 3.97656 h -11.51171 v 0.21094 c 2.02343,0.69531 3.82031,1.6875 5.39062,2.98047 1.56641,1.29297 2.91016,2.78906 4.02734,4.5039 1.11329,1.70704 1.95313,3.57422 2.51172,5.59766 0.5586,2.02344 0.83985,4.08203 0.83985,6.17578 0,3.14063 -0.38672,5.8086 -1.15235,8.00391 -0.76953,2.19922 -1.78125,3.99609 -3.03515,5.39062 -1.25782,1.39453 -2.67188,2.4961 -4.23828,3.29688 -1.57032,0.80078 -3.16016,1.3789 -4.76172,1.73047 -1.60547,0.34765 -3.16016,0.55468 -4.66016,0.625 -1.5,0.0703 -2.80859,0.10547 -3.92187,0.10547 H 270.5625 v -3.97657 h 34.01562 c 1.32422,0 3,-0.10547 5.02344,-0.3125 2.02344,-0.21093 3.96094,-0.82422 5.8086,-1.83593 1.84765,-1.01172 3.4375,-2.54688 4.76171,-4.60157 1.32813,-2.05859 1.98829,-4.90625 1.98829,-8.53125 0,-3.07031 -0.5586,-5.79297 -1.67188,-8.16406 -1.11719,-2.37109 -2.66797,-4.39453 -4.65625,-6.07031 -1.99219,-1.67188 -4.36328,-2.94922 -7.12109,-3.82031 -2.75391,-0.875 -5.77344,-1.3086 -9.05078,-1.3086 H 270.5625 v -3.97656 z m 0,0"
         style="fill:#f2f2f2;fill-opacity:1;fill-rule:nonzero;stroke:none" />
      <path
         inkscape:connector-curvature="0"
         id="path867"
         d="m 272.76172,625.90625 c 0,3.42187 0.69922,6.36719 2.09375,8.84766 1.39453,2.47265 3.24219,4.53125 5.54687,6.17187 2.30078,1.64063 4.9336,2.86328 7.90235,3.66406 2.96484,0.80078 5.98047,1.20313 9.05078,1.20313 3.14062,0 6.1914,-0.40235 9.16015,-1.20313 2.96485,-0.80078 5.61329,-2.0039 7.95313,-3.60937 2.33594,-1.60938 4.20312,-3.6836 5.60156,-6.22656 1.39453,-2.55079 2.08985,-5.53125 2.08985,-8.94922 0,-3.5586 -0.67969,-6.59375 -2.03907,-9.10547 -1.36328,-2.51172 -3.1914,-4.58985 -5.49609,-6.22656 -2.30078,-1.64063 -4.95313,-2.82813 -7.95313,-3.5625 -3,-0.73047 -6.10546,-1.09766 -9.3164,-1.09766 -3.13672,0 -6.19141,0.40234 -9.15625,1.20703 -2.96485,0.79688 -5.59766,2.01953 -7.90235,3.66016 -2.30078,1.64062 -4.13281,3.71484 -5.49609,6.22656 -1.35937,2.51562 -2.03906,5.51172 -2.03906,9 m 9.3164,19.99219 v -0.21094 c -4.25781,-2.23047 -7.44921,-5.02344 -9.57812,-8.37109 -2.12891,-3.34766 -3.19141,-7.42969 -3.19141,-12.2461 0,-4.04687 0.76563,-7.53515 2.30078,-10.46484 1.53516,-2.92969 3.59375,-5.33985 6.17579,-7.22266 2.58203,-1.88281 5.5625,-3.28125 8.94921,-4.1875 3.38282,-0.90625 6.92188,-1.35937 10.6211,-1.35937 3.98047,0 7.69531,0.48828 11.14844,1.46484 3.45312,0.97656 6.4375,2.46094 8.94921,4.44922 2.51172,1.98828 4.5,4.48047 5.96485,7.48437 1.46484,3 2.19922,6.51954 2.19922,10.57032 0,2.16015 -0.30078,4.28906 -0.89063,6.38281 -0.59375,2.09375 -1.44922,4.03125 -2.5664,5.80859 -1.11719,1.78125 -2.51172,3.33203 -4.1836,4.65625 -1.67578,1.32813 -3.55859,2.33985 -5.65234,3.03516 v 0.21094 h 32.96875 V 649.875 H 270.5625 v -3.97656 z m 0,0"
         style="fill:#f2f2f2;fill-opacity:1;fill-rule:nonzero;stroke:none" />
      <path
         inkscape:connector-curvature="0"
         id="path869"
         d="m 297.46094,672.375 c -3.20703,0 -6.29688,0.45703 -9.26172,1.36328 -2.96485,0.90625 -5.59766,2.23047 -7.90235,3.97656 -2.30078,1.74219 -4.13281,3.90625 -5.49609,6.48828 -1.35937,2.58204 -2.03906,5.54688 -2.03906,8.89454 0,3.35156 0.67969,6.3164 2.03906,8.89843 1.36328,2.57813 3.19531,4.74219 5.49609,6.48828 2.30469,1.7461 4.9375,3.07032 7.90235,3.97657 2.96484,0.90625 6.05469,1.36328 9.26172,1.36328 3.20703,0 6.29687,-0.45703 9.26172,-1.36328 2.96484,-0.90625 5.60156,-2.23047 7.90234,-3.97657 2.30469,-1.74609 4.13281,-3.91015 5.49609,-6.48828 1.35938,-2.58203 2.03907,-5.54687 2.03907,-8.89843 0,-3.34766 -0.67969,-6.3125 -2.03907,-8.89454 -1.36328,-2.58203 -3.1914,-4.74609 -5.49609,-6.48828 -2.30078,-1.74609 -4.9375,-3.07031 -7.90234,-3.97656 -2.96485,-0.90625 -6.05469,-1.36328 -9.26172,-1.36328 m 0,-3.97656 c 3.83593,0 7.44922,0.54297 10.83203,1.625 3.38281,1.07812 6.36719,2.66797 8.94922,4.76172 2.58203,2.09375 4.62109,4.67187 6.125,7.74609 1.49609,3.06641 2.25,6.58984 2.25,10.56641 0,3.98046 -0.75391,7.5039 -2.25,10.57421 -1.50391,3.06641 -3.54297,5.65235 -6.125,7.7461 -2.58203,2.09375 -5.56641,3.67969 -8.94922,4.76172 -3.38281,1.08203 -6.9961,1.62109 -10.83203,1.62109 -3.83594,0 -7.46485,-0.53906 -10.88282,-1.62109 -3.41796,-1.08203 -6.40625,-2.66797 -8.94921,-4.76172 -2.54688,-2.09375 -4.57032,-4.67969 -6.07032,-7.7461 -1.5,-3.07031 -2.25,-6.59375 -2.25,-10.57421 0,-3.97657 0.75,-7.5 2.25,-10.56641 1.5,-3.07422 3.52344,-5.65234 6.07032,-7.74609 2.54296,-2.09375 5.53125,-3.6836 8.94921,-4.76172 3.41797,-1.08203 7.04688,-1.625 10.88282,-1.625"
         style="fill:#f2f2f2;fill-opacity:1;fill-rule:nonzero;stroke:none" />
      <path
         inkscape:connector-curvature="0"
         id="path871"
         d="m 324.35937,735.48437 v 3.98047 h -11.51171 v 0.20703 c 2.02343,0.69532 3.82031,1.69141 5.39062,2.98438 1.56641,1.28906 2.91016,2.78906 4.02734,4.5 1.11329,1.70703 1.95313,3.57422 2.51172,5.59766 0.5586,2.02343 0.83985,4.08203 0.83985,6.17578 0,3.14062 -0.38672,5.80859 -1.15235,8.00781 -0.76953,2.19531 -1.78125,3.99219 -3.03515,5.38672 -1.25782,1.39844 -2.67188,2.49609 -4.23828,3.30078 -1.57032,0.80078 -3.16016,1.375 -4.76172,1.72656 -1.60547,0.34766 -3.16016,0.5586 -4.66016,0.62891 -1.5,0.0664 -2.80859,0.10156 -3.92187,0.10156 H 270.5625 v -3.97656 h 34.01562 c 1.32422,0 3,-0.10547 5.02344,-0.3125 2.02344,-0.21094 3.96094,-0.82422 5.8086,-1.83203 1.84765,-1.01172 3.4375,-2.54688 4.76171,-4.60547 1.32813,-2.0586 1.98829,-4.90235 1.98829,-8.53125 0,-3.07031 -0.5586,-5.79297 -1.67188,-8.16406 -1.11719,-2.3711 -2.66797,-4.39454 -4.65625,-6.07032 -1.99219,-1.67187 -4.36328,-2.94531 -7.12109,-3.82031 -2.75391,-0.87109 -5.77344,-1.30469 -9.05078,-1.30469 H 270.5625 v -3.98047 z m 0,0"
         style="fill:#f2f2f2;fill-opacity:1;fill-rule:nonzero;stroke:none" />
    </g>
  </g>
</svg>
