<?xml version="1.0" encoding="UTF-8" standalone="no"?>
<svg
   xmlns:dc="http://purl.org/dc/elements/1.1/"
   xmlns:cc="http://creativecommons.org/ns#"
   xmlns:rdf="http://www.w3.org/1999/02/22-rdf-syntax-ns#"
   xmlns:svg="http://www.w3.org/2000/svg"
   xmlns="http://www.w3.org/2000/svg"
   xmlns:sodipodi="http://sodipodi.sourceforge.net/DTD/sodipodi-0.dtd"
   xmlns:inkscape="http://www.inkscape.org/namespaces/inkscape"
   sodipodi:docname="icon.svg"
   inkscape:version="1.0beta1 (32d4812, 2019-09-19)"
   id="svg8"
   version="1.1"
   viewBox="0 0 146.62364 145.47896"
   height="145.47896mm"
   width="146.62364mm">
  <defs
     id="defs2" />
  <sodipodi:namedview
     inkscape:window-maximized="0"
     inkscape:window-y="0"
     inkscape:window-x="0"
     inkscape:window-height="778"
     inkscape:window-width="1280"
     fit-margin-bottom="0"
     fit-margin-right="0"
     fit-margin-left="0"
     fit-margin-top="0"
     inkscape:snap-nodes="false"
     inkscape:snap-bbox-edge-midpoints="true"
     inkscape:bbox-nodes="true"
     inkscape:guide-bbox="true"
     showguides="true"
     inkscape:snap-bbox="true"
     showgrid="false"
     inkscape:document-rotation="0"
     inkscape:current-layer="layer1"
     inkscape:document-units="mm"
     inkscape:cy="279.85565"
     inkscape:cx="183.31942"
     inkscape:zoom="0.83891703"
     inkscape:pageshadow="2"
     inkscape:pageopacity="0.0"
     borderopacity="1.0"
     bordercolor="#666666"
     pagecolor="#ffffff"
     id="base">
    <sodipodi:guide
       id="guide1001"
       orientation="1,0"
       position="73.311821,148.0373" />
    <sodipodi:guide
       id="guide1003"
       orientation="0,-1"
       position="-1.5000006,148.0373" />
    <sodipodi:guide
       id="guide1005"
       orientation="0,-1"
       position="148.12364,-0.44166544" />
    <sodipodi:guide
       id="guide1007"
       orientation="1,0"
       position="148.12364,-0.44166344" />
  </sodipodi:namedview>
  <metadata
     id="metadata5">
    <rdf:RDF>
      <cc:Work
         rdf:about="">
        <dc:format>image/svg+xml</dc:format>
        <dc:type
           rdf:resource="http://purl.org/dc/dcmitype/StillImage" />
        <dc:title></dc:title>
      </cc:Work>
    </rdf:RDF>
  </metadata>
  <g
     transform="translate(-35.317348,-82.272118)"
     id="layer1"
     inkscape:groupmode="layer"
     inkscape:label="Laag 1">
    <rect
       ry="16.630962"
       rx="16.630959"
       y="85.772118"
       x="38.817348"
       height="138.47896"
       width="139.62364"
       id="rect833"
       style="opacity:1;fill:#f2f2f2;stroke:#1a1a1a;stroke-width:7;stroke-linejoin:round;stroke-miterlimit:4;stroke-dasharray:none;stroke-opacity:1" />
    <g
       style="stroke-width:1.21697"
       transform="matrix(0.82171302,0,0,0.82171302,27.676662,94.497068)"
       id="g950">
      <path
         inkscape:connector-curvature="0"
         id="path851"
         d="m 45.819868,116.06676 c 0,1.93615 0.396875,3.35553 1.193381,4.25676 0.795128,0.89986 1.809364,1.35048 3.039952,1.35048 1.141016,0 2.120801,-0.44648 2.939355,-1.33945 0.818554,-0.89435 1.227833,-2.44464 1.227833,-4.65088 0,-2.2214 -0.436838,-3.75378 -1.306379,-4.59438 -0.870921,-0.84061 -1.854841,-1.26091 -2.950381,-1.26091 -1.382172,0 -2.417079,0.51815 -3.107476,1.55305 -0.690397,1.03629 -1.036285,2.5976 -1.036285,4.68533 m 10.134092,-4.90995 c 1.276064,-1.44143 2.567287,-2.16214 3.873666,-2.16214 0.720714,0 1.278819,0.19568 1.677074,0.58567 0.398251,0.39136 0.596688,0.81855 0.596688,1.28433 0,0.99081 -0.449238,1.48552 -1.350476,1.48552 -0.496093,0 -0.923286,-0.3073 -1.284333,-0.92328 -0.330729,-0.57051 -0.675238,-0.85577 -1.036285,-0.85577 -0.570505,0 -1.20027,0.39137 -1.890666,1.17134 0.77997,1.23059 1.169955,2.53697 1.169955,3.91914 0,1.80109 -0.644923,3.39273 -1.936146,4.77352 -1.29122,1.39595 -3.467143,2.14699 -6.530522,2.25172 -3.183268,0.10611 -4.774902,0.75103 -4.774902,1.93752 0,0.55535 0.361045,0.94533 1.08176,1.16995 0.705555,0.24116 2.19108,0.42168 4.457953,0.54157 2.477713,0.11989 4.384917,0.34865 5.721613,0.68627 1.335321,0.33762 2.401923,1.01699 3.197049,2.03811 0.795129,1.02113 1.193384,2.23656 1.193384,3.64767 0,1.983 -0.810288,3.58152 -2.432237,4.79695 -1.620573,1.21681 -3.95635,1.82453 -7.003192,1.82453 -2.791906,0 -5.02984,-0.54019 -6.711046,-1.62058 -1.681207,-1.08176 -2.52181,-2.44739 -2.52181,-4.09966 0,-0.91502 0.239779,-1.66605 0.720714,-2.25172 0.479557,-0.58566 1.161686,-0.87781 2.049143,-0.87781 0.239779,0 0.457508,0.0372 0.651812,0.11162 -0.930176,1.02113 -1.395953,2.10289 -1.395953,3.24391 0,1.32016 0.620117,2.41294 1.858974,3.27559 1.237478,0.86403 3.088183,1.29536 5.550737,1.29536 2.191082,0 3.899849,-0.4396 5.123547,-1.31741 1.223698,-0.87781 1.835545,-2.00091 1.835545,-3.36654 0,-1.50206 -0.548456,-2.5604 -1.643997,-3.175 -1.09692,-0.60083 -3.048223,-0.96187 -5.855286,-1.08176 -3.228743,-0.13505 -5.323361,-0.53192 -6.283854,-1.19338 -0.960492,-0.64493 -1.441428,-1.47864 -1.441428,-2.49976 0,-1.96647 1.373904,-3.20532 4.121713,-3.7152 -1.42627,-0.84198 -2.499762,-1.80247 -3.220476,-2.88285 -0.720714,-1.08176 -1.080382,-2.28892 -1.080382,-3.62562 0,-1.87689 0.738629,-3.47128 2.217264,-4.78593 1.478635,-1.31327 3.232877,-1.97059 5.258594,-1.97059 2.508029,0 4.518586,0.78824 6.035806,2.36471"
         style="opacity:1;fill:#000000;fill-opacity:1;fill-rule:nonzero;stroke:none;stroke-width:0.42932;stop-opacity:1" />
      <path
         inkscape:connector-curvature="0"
         id="path853"
         d="m 75.761882,113.49948 c 0.509873,-1.3367 1.339451,-2.45567 2.488738,-3.35553 1.147904,-0.90123 2.271007,-1.35185 3.366548,-1.35185 0.990808,0 1.770778,0.3073 2.342663,0.92328 0.570509,0.61599 0.855761,1.24713 0.855761,1.89205 0,0.43546 -0.146071,0.81029 -0.439593,1.12586 -0.292145,0.31557 -0.650434,0.47266 -1.069357,0.47266 -0.751032,0 -1.321541,-0.55534 -1.711523,-1.66604 -0.270097,-0.75104 -0.676617,-1.12586 -1.216808,-1.12586 -0.644924,0 -1.418001,0.43822 -2.319239,1.3174 -0.901238,0.87781 -1.478636,1.79008 -1.733571,2.73679 -0.254938,0.94533 -0.383095,2.24344 -0.383095,3.89571 v 3.28662 c 0,1.96784 0.02618,3.2067 0.07855,3.71657 0.05237,0.51125 0.265962,0.90124 0.642168,1.17133 0.374826,0.2701 1.043174,0.40515 2.003665,0.40515 h 0.631144 v 1.03628 H 69.50146 v -1.03628 h 0.472666 c 0.901238,0 1.543402,-0.12403 1.925119,-0.37207 0.383095,-0.24667 0.61185,-0.59669 0.687641,-1.04593 0.07442,-0.452 0.112998,-1.74184 0.112998,-3.87505 v -5.20209 c 0,-1.98024 -0.02618,-3.22323 -0.07992,-3.72622 -0.05237,-0.50298 -0.265963,-0.89297 -0.640789,-1.17133 -0.376202,-0.27836 -1.04455,-0.41617 -2.005044,-0.41617 h -0.472666 v -1.01423 c 1.411111,-0.16399 3.25768,-0.60772 5.539712,-1.32843 0.435462,1.18649 0.675238,2.7547 0.720714,4.70738"
         style="opacity:1;fill:#000000;fill-opacity:1;fill-rule:nonzero;stroke:none;stroke-width:0.42932;stop-opacity:1" />
      <path
         inkscape:connector-curvature="0"
         id="path855"
         d="m 103.34607,116.71995 -2.45428,0.99081 c -3.873667,1.57648 -5.81119,3.55672 -5.81119,5.94486 0,0.94533 0.248045,1.70739 0.742763,2.28616 0.496094,0.5774 1.141014,0.86679 1.937519,0.86679 0.705556,0 1.524113,-0.23289 2.454288,-0.69867 0.93155,-0.4644 1.97473,-1.16306 3.1309,-2.09323 z m 6.53052,7.881 h 0.83372 c -0.13505,2.56729 -1.39596,3.85162 -3.7841,3.85162 -1.02112,0 -1.82727,-0.2701 -2.41983,-0.81029 -0.59394,-0.54157 -0.97979,-1.34358 -1.16031,-2.41019 -1.50206,1.06661 -2.87183,1.86862 -4.110686,2.41019 -1.237477,0.54019 -2.345422,0.81029 -3.321071,0.81029 -1.247126,0 -2.319239,-0.36105 -3.220477,-1.08038 -0.901234,-0.72072 -1.350475,-1.67432 -1.350475,-2.86081 0,-1.54616 0.753787,-2.89801 2.262737,-4.05419 1.508951,-1.1548 3.592545,-2.28203 6.249402,-3.37757 l 3.49057,-1.41938 v -0.89986 c 0,-1.27606 -0.0827,-2.19935 -0.24804,-2.76986 -0.16537,-0.5705 -0.59394,-1.08175 -1.28296,-1.53237 -0.69177,-0.44925 -1.5999,-0.67524 -2.725757,-0.67524 -2.251714,0 -3.505729,0.75103 -3.760668,2.25171 -0.239776,1.53238 -0.87092,2.29719 -1.892046,2.29719 -0.915017,0 -1.372524,-0.43408 -1.372524,-1.30638 0,-0.85438 0.607713,-1.77491 1.823145,-2.75883 1.216805,-0.98254 3.107475,-1.4745 5.674759,-1.4745 1.907201,0 3.385841,0.30041 4.437281,0.90123 1.05007,0.60083 1.7446,1.28296 2.0836,2.04915 0.33762,0.76619 0.50574,1.93752 0.50574,3.51262 v 7.4538 c 0,1.74322 0.0896,2.86081 0.27009,3.35553 0.18053,0.49609 0.57051,0.74414 1.17133,0.74414 0.99081,0 1.6068,-0.73587 1.84657,-2.20762"
         style="opacity:1;fill:#000000;fill-opacity:1;fill-rule:nonzero;stroke:none;stroke-width:0.42932;stop-opacity:1" />
      <path
         inkscape:connector-curvature="0"
         id="path857"
         d="m 131.62893,123.4751 h 0.99081 c -1.02113,3.49883 -3.57325,5.24756 -7.65638,5.24756 -2.62792,0 -4.83829,-0.89296 -6.6325,-2.68028 -1.79421,-1.78594 -2.69131,-4.15065 -2.69131,-7.09276 0,-3.0179 0.96876,-5.4653 2.90491,-7.34219 1.93752,-1.87689 4.22644,-2.81533 6.86952,-2.81533 1.59163,0 3.05511,0.34864 4.3918,1.04731 1.33532,0.69866 2.00367,1.55029 2.00367,2.55626 0,0.37482 -0.12402,0.72898 -0.37207,1.05833 -0.24667,0.33073 -0.60358,0.49472 -1.06936,0.49472 -0.99081,0 -1.59852,-0.5774 -1.82452,-1.73358 -0.17915,-0.87092 -0.45751,-1.47863 -0.83233,-1.82314 -0.39137,-0.34589 -1.14929,-0.51952 -2.27515,-0.51952 -2.01193,0 -3.52502,0.69866 -4.53788,2.09462 -1.01285,1.39733 -1.51997,3.49884 -1.51997,6.3059 0,2.89802 0.54433,5.16489 1.63297,6.802 1.08865,1.63573 2.73541,2.45428 4.94303,2.45428 2.97242,0 4.86447,-1.35047 5.67476,-4.05418"
         style="opacity:1;fill:#000000;fill-opacity:1;fill-rule:nonzero;stroke:none;stroke-width:0.42932;stop-opacity:1" />
      <path
         inkscape:connector-curvature="0"
         id="path859"
         d="m 151.6408,114.872 c 0.0455,-0.34451 0.0675,-0.65181 0.0675,-0.9219 0,-1.32154 -0.38723,-2.3468 -1.1603,-3.07441 -0.77308,-0.7276 -1.72255,-1.09278 -2.84841,-1.09278 -2.73265,0 -4.36149,1.69774 -4.88652,5.08909 z m 3.94119,0.90124 h -12.85848 c -0.0606,0.88608 -0.0909,1.54616 -0.0909,1.98162 0,3.24252 0.50712,5.67889 1.51998,7.30774 1.01424,1.62884 2.52595,2.44464 4.53788,2.44464 2.73265,0 4.66879,-1.2237 5.80981,-3.6711 h 1.08176 c -0.48094,1.531 -1.43454,2.72852 -2.86081,3.59255 -1.42627,0.86265 -2.97932,1.29397 -4.66052,1.29397 -1.5627,0 -3.0372,-0.39411 -4.42626,-1.18235 -1.38907,-0.78824 -2.52595,-1.90307 -3.41202,-3.3445 -0.88471,-1.44143 -1.32843,-3.19016 -1.32843,-5.24619 0,-2.91318 0.85576,-5.33439 2.56728,-7.26364 1.71153,-1.92926 3.85162,-2.89388 6.4189,-2.89388 2.41708,0 4.2857,0.73587 5.60724,2.20762 1.32154,1.47174 2.01883,3.062 2.09462,4.77352"
         style="opacity:1;fill:#000000;fill-opacity:1;fill-rule:nonzero;stroke:none;stroke-width:0.42932;stop-opacity:1" />
    </g>
    <path
       d="m 79.90652,168.99279 c -7.340764,-7.34867 -11.882756,-17.49354 -11.882756,-28.69076 0,-11.19722 4.541992,-21.34211 11.882756,-28.69078 l 5.222999,5.2173 c -6.005716,6.01244 -9.721839,14.31241 -9.721839,23.47348 0,9.16106 3.716123,17.46102 9.721839,23.47348 z m 52.22231,-5.21728 c 6.0057,-6.01246 9.72184,-14.31242 9.72184,-23.47348 0,-9.16107 -3.71614,-17.46104 -9.72184,-23.47348 l 5.22298,-5.2173 c 7.34078,7.34867 11.88277,17.49356 11.88277,28.69078 0,11.19722 -4.54199,21.34209 -11.88277,28.69076 z m -41.822443,-5.17105 c -4.682828,-4.68788 -7.580343,-11.15951 -7.580343,-18.30243 0,-7.14292 2.897515,-13.61457 7.580343,-18.30245 l 5.246315,5.24049 c -3.342067,3.34556 -5.409965,7.96425 -5.409965,13.06196 0,5.0977 2.067898,9.71639 5.409965,13.06195 z m 31.399243,-5.24048 c 3.34207,-3.34556 5.40997,-7.96425 5.40997,-13.06195 0,-5.09771 -2.0679,-9.7164 -5.40997,-13.06196 l 5.24633,-5.24049 c 4.68282,4.68788 7.58034,11.15953 7.58034,18.30245 0,7.14292 -2.89751,13.61455 -7.58034,18.30243 z m -13.07646,-23.87643 c 5.96866,0 10.81448,4.84582 10.81448,10.81448 0,5.96865 -4.84582,10.81447 -10.81448,10.81447 -5.96866,0 -10.814474,-4.84582 -10.814474,-10.81447 0,-5.96866 4.845814,-10.81448 10.814474,-10.81448 z"
       style="clip-rule:evenodd;opacity:1;fill:#1a1a1a;fill-opacity:1;fill-rule:evenodd;stroke-width:0.30137;stroke-linejoin:round;stroke-miterlimit:1.41421;stop-opacity:1"
       id="path841"
       inkscape:connector-curvature="0" />
  </g>
</svg>
